#!OML:ASF Y:\EmotionMaleHayes\Project 1\Capture day 1\Session 1\Male1.ASF
:FULLY-SPECIFIED
:DEGREES
634
root -28.1576 17.1285 -11.5844 177.244 28.4644 176.785
lowerback 9.2019 1.88963 -0.593337
upperback 4.90984 2.80855 0.0697619
thorax -0.0968961 1.53949 0.149212
lowerneck -27.7629 -3.94606 -2.94448
upperneck 27.4634 -5.94174 5.93927
head 14.3729 -1.78763 1.75994
rclavicle 1.6201e-014 -1.43125e-014
rhumerus 40.7086 18.5563 -39.3958
rradius 35.289
rwrist 0.916016
rhand -6.53387 -30.4485
rfingers 7.12502
rthumb 19.3191 -59.5089
lclavicle 1.6201e-014 -1.43125e-014
lhumerus 45.8907 -18.3391 29.9843
lradius 38.1414
lwrist 3.09843
lhand -14.2929 -24.3905
lfingers 7.12502
lthumb 11.8467 5.25439
rfemur 5.18975 -6.56931 18.0685
rtibia 7.60507
rfoot -14.871 4.77416
rtoes 30.9739
lfemur -12.9175 -8.72494 -13.1233
ltibia 24.4138
lfoot -11.6218 4.03471
ltoes -24.8993
635
root -28.1469 17.1283 -11.6659 177.225 29.4324 176.596
lowerback 9.23895 1.93634 -0.820352
upperback 4.87148 2.84502 -0.0860695
thorax -0.159398 1.55346 0.109804
lowerneck -27.6017 -4.03923 -3.2137
upperneck 27.4051 -6.03226 6.16498
head 14.3399 -1.82644 1.87893
rclavicle -4.44284e-014 7.95139e-015
rhumerus 40.8092 18.8218 -39.5456
rradius 35.4394
rwrist 0.960077
rhand -6.71995 -30.3613
rfingers 7.12502
rthumb 19.1401 -59.4395
lclavicle -4.44284e-014 7.95139e-015
lhumerus 45.8062 -18.3262 29.9148
lradius 38.0841
lwrist 3.0816
lhand -14.3582 -24.364
lfingers 7.12502
lthumb 11.7837 5.2845
rfemur 5.42168 -6.0901 17.823
rtibia 7.86666
rfoot -16.2929 5.26106
rtoes 28.9702
lfemur -13.0848 -9.70112 -13.0535
ltibia 22.4366
lfoot -10.5882 3.97817
ltoes -26.3032
636
root -28.1365 17.1267 -11.7498 177.354 30.4528 176.585
lowerback 9.15856 2.0248 -0.866401
upperback 4.85035 2.95238 -0.219394
thorax -0.133248 1.60532 -0.00857655
lowerneck -27.4706 -4.14977 -3.4042
upperneck 27.3268 -6.15769 6.30904
head 14.3004 -1.88483 1.94312
rclavicle -1.56046e-014 -9.93923e-015
rhumerus 40.9738 19.1569 -39.2535
rradius 35.6468
rwrist 0.713252
rhand -6.69573 -30.3899
rfingers 7.12502
rthumb 19.1634 -59.4657
lclavicle -1.56046e-014 -9.93923e-015
lhumerus 45.869 -18.3433 29.759
lradius 38.0622
lwrist 3.18021
lhand -14.4977 -24.2437
lfingers 7.12502
lthumb 11.6492 5.41245
rfemur 5.41502 -5.75057 17.7633
rtibia 7.44313
rfoot -15.6008 5.93318
rtoes 29.5569
lfemur -13.4035 -10.5345 -12.7553
ltibia 20.769
lfoot -9.24155 3.46371
ltoes -26.3529
637
root -28.1257 17.1275 -11.836 177.399 31.4253 176.539
lowerback 9.1619 2.12185 -0.958286
upperback 4.83408 3.06942 -0.357189
thorax -0.149474 1.66261 -0.110302
lowerneck -27.4354 -4.24891 -3.40086
upperneck 27.3456 -6.31308 6.33031
head 14.3122 -1.9477 1.91995
rclavicle -1.13506e-013 2.3059e-014
rhumerus 41.1612 19.3936 -38.9466
rradius 35.7895
rwrist 0.560851
rhand -6.28992 -30.4734
rfingers 7.12502
rthumb 19.5536 -59.5101
lclavicle -1.13506e-013 2.3059e-014
lhumerus 45.9788 -18.4305 29.5013
lradius 38.1078
lwrist 3.37139
lhand -14.4606 -24.3358
lfingers 7.12502
lthumb 11.685 5.3183
rfemur 5.58897 -5.44696 17.6169
rtibia 7.33961
rfoot -15.5934 6.6765
rtoes 30.1218
lfemur -13.6763 -11.1327 -12.4858
ltibia 19.2639
lfoot -9.35492 4.00246
ltoes -25.5402
638
root -28.1086 17.1294 -11.9212 177.396 32.3439 176.521
lowerback 9.21268 2.20471 -1.23244
upperback 4.83694 3.15572 -0.375845
thorax -0.187325 1.70093 0.0131793
lowerneck -27.4793 -4.36016 -3.43504
upperneck 27.3924 -6.45434 6.29502
head 14.35 -2.01654 1.88224
rclavicle -1.09232e-013 2.66371e-014
rhumerus 41.3767 19.6209 -38.6685
rradius 35.8921
rwrist 0.476273
rhand -6.04869 -30.4671
rfingers 7.12502
rthumb 19.7856 -59.4801
lclavicle -1.09232e-013 2.66371e-014
lhumerus 45.9738 -18.4329 29.5273
lradius 38.0977
lwrist 3.38732
lhand -14.2792 -24.6471
lfingers 7.12502
lthumb 11.8599 4.99704
rfemur 5.89779 -5.19363 17.4785
rtibia 7.13467
rfoot -15.6764 7.43532
rtoes 30.1644
lfemur -13.8264 -11.4842 -12.1995
ltibia 17.6358
lfoot -8.8583 2.39194
ltoes -24.8498
